<?xml version="1.0" encoding="UTF-8" standalone="no"?>
<svg
   xmlns:dc="http://purl.org/dc/elements/1.1/"
   xmlns:cc="http://creativecommons.org/ns#"
   xmlns:rdf="http://www.w3.org/1999/02/22-rdf-syntax-ns#"
   xmlns:svg="http://www.w3.org/2000/svg"
   xmlns="http://www.w3.org/2000/svg"
   xmlns:xlink="http://www.w3.org/1999/xlink"
   xmlns:sodipodi="http://sodipodi.sourceforge.net/DTD/sodipodi-0.dtd"
   xmlns:inkscape="http://www.inkscape.org/namespaces/inkscape"
   width="297mm"
   height="297mm"
   viewBox="0 0 297 297"
   version="1.1"
   id="svg8"
   sodipodi:docname="logo.svg"
   inkscape:version="1.0 (4035a4fb49, 2020-05-01)">
  <defs
     id="defs2">
    <linearGradient
       inkscape:collect="always"
       id="linearGradient868">
      <stop
         style="stop-color:#362417;stop-opacity:1;"
         offset="0"
         id="stop864" />
      <stop
         style="stop-color:#362417;stop-opacity:0;"
         offset="1"
         id="stop866" />
    </linearGradient>
    <rect
       x="145.52083"
       y="81.831848"
       width="51.47773"
       height="36.327095"
       id="rect1075" />
    <rect
       x="53.294643"
       y="40.443451"
       width="63.877975"
       height="14.363095"
       id="rect977" />
    <rect
       x="116.52951"
       y="50.24667"
       width="87.129868"
       height="18.976135"
       id="rect854" />
    <linearGradient
       inkscape:collect="always"
       xlink:href="#linearGradient868"
       id="linearGradient870"
       x1="66.884796"
       y1="75.833565"
       x2="104.31188"
       y2="75.833565"
       gradientUnits="userSpaceOnUse" />
  </defs>
  <sodipodi:namedview
     id="base"
     pagecolor="#ffffff"
     bordercolor="#666666"
     borderopacity="1.0"
     inkscape:pageopacity="1"
     inkscape:pageshadow="2"
     inkscape:zoom="0.49497475"
     inkscape:cx="347.9179"
     inkscape:cy="404.57088"
     inkscape:document-units="mm"
     inkscape:current-layer="layer1"
     inkscape:document-rotation="0"
     showgrid="false"
     inkscape:window-width="1920"
     inkscape:window-height="1014"
     inkscape:window-x="-8"
     inkscape:window-y="-8"
     inkscape:window-maximized="1"
     showguides="false" />
  <metadata
     id="metadata5">
    <rdf:RDF>
      <cc:Work
         rdf:about="">
        <dc:format>image/svg+xml</dc:format>
        <dc:type
           rdf:resource="http://purl.org/dc/dcmitype/StillImage" />
        <dc:title />
      </cc:Work>
    </rdf:RDF>
  </metadata>
  <g
     inkscape:label="Layer 1"
     inkscape:groupmode="layer"
     id="layer1">
    <circle
       style="fill:none;fill-opacity:1;stroke:none;stroke-width:2.30613;stroke-miterlimit:4;stroke-dasharray:none;stroke-opacity:1"
       id="path1023"
       cx="-164.03654"
       cy="93.013351"
       r="95.154465"
       transform="rotate(-97)" />
    <circle
       style="fill:none;fill-opacity:1;stroke:none;stroke-width:0.832476;stroke-opacity:1"
       id="path967"
       cx="-153.70483"
       cy="112.99632"
       r="95.024948"
       transform="rotate(-90)" />
    <path
       id="circle1012"
       style="fill:#7370a3;fill-opacity:1;stroke:#362417;stroke-width:2.09233;stroke-miterlimit:4;stroke-dasharray:none;stroke-opacity:1"
       d="M 89.161684,58.870011 A 95.024954,95.024954 0 0 0 18.413733,169.31552 95.024954,95.024954 0 0 0 129.824,244.4641 95.024954,95.024954 0 0 0 186.88552,209.28735 89.696652,89.696652 0 0 1 154.0861,222.81013 89.696652,89.696652 0 0 1 48.92311,151.87672 89.696652,89.696652 0 0 1 89.161684,58.870011 Z" />
    <text
       xml:space="preserve"
       style="font-style:normal;font-variant:normal;font-weight:normal;font-stretch:normal;font-size:94.9489px;line-height:1.25;font-family:'Palace Script MT';-inkscape-font-specification:'Palace Script MT';fill:#362417;fill-opacity:1;stroke:none;stroke-width:2.37374;"
       x="68.592041"
       y="196.32404"
       id="text1021"><tspan
         sodipodi:role="line"
         id="tspan1019"
         x="68.592041"
         y="196.32404"
         style="font-style:normal;font-variant:normal;font-weight:normal;font-stretch:normal;font-family:'Vladimir Script';-inkscape-font-specification:'Vladimir Script';stroke-width:2.37374;fill:#362417;fill-opacity:1;">Charm</tspan></text>
    <text
       xml:space="preserve"
       style="font-style:normal;font-variant:normal;font-weight:normal;font-stretch:normal;font-size:27.7492px;line-height:1.25;font-family:serif;-inkscape-font-specification:serif;fill:#362417;fill-opacity:1;stroke:none;stroke-width:0.832476;"
       x="195.71376"
       y="153.61366"
       id="text1071"><tspan
         sodipodi:role="line"
         id="tspan1069"
         x="195.71376"
         y="153.61366"
         style="font-style:normal;font-variant:normal;font-weight:normal;font-stretch:normal;font-size:27.7492px;font-family:serif;-inkscape-font-specification:serif;stroke-width:0.832476;fill:#362417;fill-opacity:1;">&amp;</tspan></text>
    <text
       xml:space="preserve"
       id="text1073"
       style="font-style:normal;font-weight:normal;font-size:10.5833px;line-height:1.25;font-family:sans-serif;white-space:pre;shape-inside:url(#rect1075);fill:#362417;fill-opacity:1;stroke:none;"
       transform="matrix(3.1463699,0,0,3.1463699,-109.00887,-162.48438)" />
    <g
       transform="matrix(3.1463699,0,0,3.1463699,-470.03827,-191.5518)"
       id="g978">
      <g
         style="stroke:#362417;stroke-width:5.21745;stroke-miterlimit:4;stroke-dasharray:none;stroke-opacity:1"
         transform="matrix(0.09525722,0,0,0.09525722,212.48608,78.205639)"
         id="g1067" />
    </g>
    <g
       style="font-style:normal;font-weight:normal;font-size:8.81944px;line-height:1.25;font-family:sans-serif;fill:#362417;fill-opacity:1;stroke:none;stroke-width:0.264583"
       id="text882"
       transform="matrix(3.1463699,0,0,3.1463699,-116.57723,-152.39323)"
       aria-label="CHANGE">
      <path
         id="path887"
         style="font-style:normal;font-variant:normal;font-weight:normal;font-stretch:normal;font-size:8.81944px;font-family:serif;-inkscape-font-specification:serif;fill:#362417;fill-opacity:1"
         d="m 72.898305,63.795741 0.114427,1.986426 -0.133491,-0.0013 q -0.258422,-0.893941 -0.749869,-1.290558 -0.491446,-0.396617 -1.184739,-0.403275 -0.581333,-0.0056 -1.053558,0.287035 -0.472185,0.288312 -0.749677,0.931632 -0.273185,0.643361 -0.282407,1.603637 -0.0076,0.792335 0.240872,1.376108 0.248481,0.583772 0.753631,0.898696 0.509457,0.314965 1.163994,0.321251 0.568415,0.0055 1.005653,-0.23151 0.437281,-0.241274 0.965275,-0.959707 l 0.132664,0.08741 q -0.446715,0.775198 -1.035827,1.131292 -0.589113,0.356094 -1.394367,0.348361 -1.451178,-0.01394 -2.237481,-1.09813 -0.586559,-0.806654 -0.576138,-1.891808 0.0084,-0.874153 0.407287,-1.602438 0.398891,-0.728285 1.087418,-1.122184 0.692874,-0.398163 1.50674,-0.390347 0.633007,0.0061 1.245811,0.322037 0.17995,0.09647 0.257461,0.09722 0.116266,0.0011 0.203175,-0.07987 0.113077,-0.115191 0.16243,-0.321432 z" />
      <path
         id="path889"
         style="font-style:normal;font-variant:normal;font-weight:normal;font-stretch:normal;font-size:8.81944px;font-family:serif;-inkscape-font-specification:serif;fill:#362417;fill-opacity:1"
         d="m 75.882607,67.075536 2.651164,0.575983 0.354733,-1.63278 q 0.09508,-0.437653 0.07055,-0.588409 -0.01923,-0.114347 -0.137431,-0.219351 -0.15901,-0.14031 -0.361004,-0.184194 l -0.201993,-0.04389 0.03383,-0.155703 2.440755,0.53027 -0.03383,0.155704 -0.201993,-0.04389 q -0.201994,-0.04388 -0.403974,0.01359 -0.149291,0.03807 -0.229959,0.165974 -0.07555,0.124606 -0.166973,0.545426 l -0.799977,3.682172 q -0.09417,0.433445 -0.06963,0.584201 0.01923,0.114347 0.133223,0.218437 0.163219,0.141224 0.365212,0.185108 l 0.201994,0.04389 -0.03383,0.155703 -2.440755,-0.53027 0.03383,-0.155704 0.201994,0.04389 q 0.34928,0.07588 0.55399,-0.09558 0.134461,-0.111806 0.246001,-0.625206 l 0.377589,-1.737986 -2.651164,-0.575983 -0.377589,1.737985 q -0.09417,0.433445 -0.06963,0.5842 0.01923,0.114348 0.137431,0.219352 0.15901,0.14031 0.361004,0.184194 l 0.206201,0.0448 -0.03383,0.155703 -2.444963,-0.531185 0.03383,-0.155703 0.201993,0.04389 q 0.353489,0.0768 0.558199,-0.09466 0.130253,-0.112721 0.241793,-0.626121 l 0.799977,-3.682173 q 0.09508,-0.437652 0.07055,-0.588408 -0.01923,-0.114348 -0.133223,-0.218437 -0.163219,-0.141224 -0.365212,-0.185109 l -0.201994,-0.04388 0.03383,-0.155704 2.444963,0.531185 -0.03383,0.155704 -0.206202,-0.0448 q -0.201993,-0.04389 -0.403974,0.01359 -0.145082,0.03899 -0.225751,0.166888 -0.07975,0.123691 -0.17118,0.544511 z" />
      <path
         id="path891"
         style="font-style:normal;font-variant:normal;font-weight:normal;font-stretch:normal;font-size:8.81944px;font-family:serif;-inkscape-font-specification:serif;fill:#362417;fill-opacity:1"
         d="m 84.17955,71.001995 -2.058104,-0.935743 -0.742086,0.674945 q -0.274093,0.249095 -0.343606,0.401983 -0.05525,0.121526 0.01566,0.267299 0.07661,0.143636 0.448314,0.345749 l -0.06595,0.145048 -1.673926,-0.761071 0.06595,-0.145048 q 0.359953,0.0927 0.500734,0.04317 0.285484,-0.09727 0.790545,-0.563031 l 3.859058,-3.524753 0.137207,0.06238 -0.160178,5.263263 q -0.01895,0.634742 0.0883,0.877459 0.112954,0.240579 0.429419,0.408117 l -0.06595,0.145047 -2.097306,-0.953567 0.06595,-0.145048 q 0.324666,0.128692 0.475426,0.08843 0.15468,-0.03848 0.213498,-0.167842 0.07842,-0.172489 0.09094,-0.616203 z m 0.02213,-0.340001 0.07509,-2.558214 -1.901905,1.727631 z" />
      <path
         id="path893"
         style="font-style:normal;font-variant:normal;font-weight:normal;font-stretch:normal;font-size:8.81944px;font-family:serif;-inkscape-font-specification:serif;fill:#362417;fill-opacity:1"
         d="m 88.902974,69.00238 1.273088,0.943748 0.259776,5.644284 2.005464,-2.70531 q 0.320567,-0.432435 0.303202,-0.611485 -0.02029,-0.240186 -0.297049,-0.445349 l -0.162595,-0.120533 0.09489,-0.128 1.632872,1.210459 -0.09489,0.128 -0.166055,-0.123097 q -0.297515,-0.22055 -0.555412,-0.13298 -0.158173,0.05428 -0.45053,0.448664 l -2.93126,3.954181 -0.124541,-0.09232 -0.292303,-6.07044 -2.141384,2.888663 q -0.320566,0.432434 -0.306661,0.608921 0.02375,0.24275 0.297049,0.445348 l 0.166054,0.123097 -0.09489,0.128001 -1.632873,-1.210459 0.09489,-0.128001 0.162595,0.120533 q 0.300974,0.223115 0.558871,0.135545 0.158174,-0.05428 0.45053,-0.448664 L 89.370166,70.3029 q -0.02716,-0.390011 -0.07798,-0.54562 -0.04736,-0.153044 -0.202747,-0.370082 -0.07724,-0.105507 -0.281353,-0.256814 z" />
      <path
         id="path895"
         style="font-style:normal;font-variant:normal;font-weight:normal;font-stretch:normal;font-size:8.81944px;font-family:serif;-inkscape-font-specification:serif;fill:#362417;fill-opacity:1"
         d="m 98.716625,77.686817 -1.283282,1.331546 -0.09964,-0.113089 q 0.366096,-0.626748 0.388681,-1.128758 0.03357,-0.724049 -0.507333,-1.337963 -0.737337,-0.836862 -1.784044,-0.689457 -0.88068,0.12739 -1.652919,0.807791 -0.626839,0.552291 -0.930304,1.250123 -0.303465,0.697833 -0.201329,1.302314 0.108214,0.604865 0.472612,1.018449 0.213515,0.242334 0.474187,0.414423 0.260671,0.172088 0.565269,0.276777 l 1.266601,-1.11597 q 0.329575,-0.29038 0.38419,-0.430331 0.06069,-0.139566 0.01844,-0.291743 -0.03617,-0.151793 -0.269613,-0.416745 l 0.122782,-0.108181 1.494603,1.696341 -0.122783,0.108181 -0.07117,-0.08078 q -0.222055,-0.252028 -0.472633,-0.197694 -0.176489,0.04071 -0.528682,0.351019 l -1.340917,1.181449 q -0.527718,-0.195074 -0.94027,-0.474401 -0.412551,-0.279327 -0.802571,-0.721992 -1.118817,-1.269832 -0.885334,-2.646391 0.175113,-1.032419 0.973201,-1.735594 0.578371,-0.509589 1.353106,-0.698597 0.92045,-0.225564 1.766459,0.05066 0.705291,0.233761 1.283204,0.889679 0.210668,0.239103 0.342706,0.467133 0.134885,0.231261 0.318411,0.706637 0.09157,0.240728 0.145661,0.302119 0.05409,0.06139 0.146029,0.055 0.09802,-0.006 0.271344,-0.141504 z" />
      <path
         id="path897"
         style="font-style:normal;font-variant:normal;font-weight:normal;font-stretch:normal;font-size:8.81944px;font-family:serif;-inkscape-font-specification:serif;fill:#362417;fill-opacity:1"
         d="m 100.5419,81.216232 -1.995297,1.160442 0.645171,1.109327 q 0.251141,0.431818 0.465866,0.501224 0.283819,0.09398 0.72863,-0.134822 l 0.0801,0.137735 -1.757052,1.021883 -0.08011,-0.137736 q 0.338224,-0.266451 0.412146,-0.379187 0.09132,-0.142782 0.07701,-0.338707 -0.01431,-0.195926 -0.198339,-0.512345 l -0.645172,-1.109327 -1.66399,0.967758 q -0.335032,0.19485 -0.392163,0.267931 -0.05341,0.07091 -0.05478,0.171347 0.0024,0.09827 0.123592,0.30673 l 0.497951,0.856192 q 0.248976,0.428096 0.421117,0.58703 0.172142,0.158934 0.451023,0.235862 0.36503,0.09657 0.971077,0.06791 l 0.0866,0.148903 -1.518981,0.30056 -2.26243,-3.890089 0.137736,-0.08011 0.10392,0.178684 q 0.10392,0.178683 0.282635,0.288959 0.128841,0.08448 0.271778,0.05615 0.145103,-0.02461 0.513637,-0.238945 l 3.279588,-1.907369 q 0.480217,-0.279285 0.535597,-0.441022 0.071,-0.220613 -0.110896,-0.533309 l -0.10392,-0.178684 0.137735,-0.08011 2.262431,3.890089 -1.07313,0.698845 -0.0844,-0.14518 q 0.35285,-0.30983 0.44546,-0.493217 0.0948,-0.179664 0.0647,-0.411258 -0.0308,-0.181378 -0.24943,-0.557358 z" />
    </g>
    <path
       style="fill:#ffffff;stroke-width:0.474374"
       d=""
       id="path873"
       transform="scale(0.26458333)" />
    <g
       style="stroke:#362417;stroke-opacity:1"
       id="g901">
      <path
         sodipodi:nodetypes="cc"
         id="path1059"
         d="m -371.77822,67.763599 c 0.90698,55.023631 25.49578,81.915831 79.61293,82.285121"
         style="stroke:#362417;stroke-width:5.21745;stroke-miterlimit:4;stroke-dasharray:none;stroke-opacity:1;fill:none;fill-opacity:1;stroke-linecap:butt;stroke-linejoin:miter"
         transform="matrix(0.29971444,0,0,0.29971444,198.52154,54.51207)" />
      <path
         style="stroke:#362417;stroke-width:5.21745;stroke-miterlimit:4;stroke-dasharray:none;stroke-opacity:1;fill:none;fill-opacity:1;stroke-linecap:butt;stroke-linejoin:miter"
         d="m -371.77822,67.763599 c -0.90698,55.023631 -25.49578,81.915831 -79.61293,82.285121"
         id="path1061"
         sodipodi:nodetypes="cc"
         transform="matrix(0.29971444,0,0,0.29971444,198.52154,54.51207)" />
      <path
         sodipodi:nodetypes="cc"
         id="path1063"
         d="m -371.77822,232.33385 c -0.90698,-55.02364 -25.49578,-81.91584 -79.61293,-82.28513"
         style="stroke:#362417;stroke-width:5.21745;stroke-miterlimit:4;stroke-dasharray:none;stroke-opacity:1;fill:none;fill-opacity:1;stroke-linecap:butt;stroke-linejoin:miter"
         transform="matrix(0.29971444,0,0,0.29971444,198.52154,54.51207)" />
      <path
         style="stroke:#362417;stroke-width:5.21745;stroke-miterlimit:4;stroke-dasharray:none;stroke-opacity:1;fill:none;fill-opacity:1;stroke-linecap:butt;stroke-linejoin:miter"
         d="m -371.77822,232.33385 c 0.90698,-55.02364 25.49578,-81.91584 79.61293,-82.28513"
         id="path1065"
         sodipodi:nodetypes="cc"
         transform="matrix(0.29971444,0,0,0.29971444,198.52154,54.51207)" />
      <path
         transform="matrix(0.83247704,0,0,0.83247704,-470.03827,-191.5518)"
         id="path970"
         d="m 668.72583,367.17654 c -1.40038,-5.40332 -4.41579,-10.14409 -8.3359,-13.10554 -1.86962,-1.41241 -5.44295,-3.20403 -7.85607,-3.93893 l -1.74484,-0.53138 2.16205,-0.70468 c 8.00442,-2.60891 13.1598,-7.97084 15.61042,-16.23588 l 0.66438,-2.2407 0.69561,2.2407 c 2.56458,8.26097 7.38525,13.39849 15.021,16.00826 l 2.74951,0.93974 -2.47124,0.80937 c -3.36058,1.10066 -6.25097,2.78624 -8.65991,5.05018 -3.03883,2.85594 -5.06209,6.1477 -6.39597,10.40603 -0.36345,1.16029 -0.7357,2.31477 -0.82722,2.56552 -0.11449,0.31366 -0.30537,-0.0803 -0.61182,-1.26269 z"
         style="fill:#7370a3;fill-opacity:1;stroke:#362417;stroke-width:0.474374;stroke-miterlimit:4;stroke-dasharray:none;stroke-opacity:1" />
      <rect
         y="82.118568"
         x="86.394875"
         height="1.5"
         width="1.5"
         id="rect879"
         style="fill:#362417;stroke-width:0.763966;fill-opacity:1;stroke:#362417;stroke-opacity:1" />
      <rect
         style="fill:#362417;fill-opacity:1;stroke-width:0.763966;stroke:#362417;stroke-opacity:1"
         id="rect881"
         width="1.5"
         height="1.5"
         x="70.692787"
         y="98.822914" />
      <rect
         y="115.2934"
         x="86.361465"
         height="1.5"
         width="1.5"
         id="rect883"
         style="fill:#362417;fill-opacity:1;stroke-width:0.763966;stroke:#362417;stroke-opacity:1" />
      <rect
         style="fill:#362417;fill-opacity:1;stroke-width:0.763966;stroke:#362417;stroke-opacity:1"
         id="rect885"
         width="1.5"
         height="1.5"
         x="102.23059"
         y="98.756104" />
    </g>
    <g
       style="stroke:#362417;stroke-opacity:1"
       id="g921"
       transform="matrix(0.45759325,0,0,0.45759325,28.744871,73.481028)">
      <path
         transform="matrix(0.29971444,0,0,0.29971444,198.52154,54.51207)"
         style="fill:none;fill-opacity:1;stroke:#362417;stroke-width:5.21745;stroke-linecap:butt;stroke-linejoin:miter;stroke-miterlimit:4;stroke-dasharray:none;stroke-opacity:1"
         d="m -371.77822,67.763599 c 0.90698,55.023631 25.49578,81.915831 79.61293,82.285121"
         id="path903"
         sodipodi:nodetypes="cc" />
      <path
         transform="matrix(0.29971444,0,0,0.29971444,198.52154,54.51207)"
         sodipodi:nodetypes="cc"
         id="path905"
         d="m -371.77822,67.763599 c -0.90698,55.023631 -25.49578,81.915831 -79.61293,82.285121"
         style="fill:none;fill-opacity:1;stroke:#362417;stroke-width:5.21745;stroke-linecap:butt;stroke-linejoin:miter;stroke-miterlimit:4;stroke-dasharray:none;stroke-opacity:1" />
      <path
         transform="matrix(0.29971444,0,0,0.29971444,198.52154,54.51207)"
         style="fill:none;fill-opacity:1;stroke:#362417;stroke-width:5.21745;stroke-linecap:butt;stroke-linejoin:miter;stroke-miterlimit:4;stroke-dasharray:none;stroke-opacity:1"
         d="m -371.77822,232.33385 c -0.90698,-55.02364 -25.49578,-81.91584 -79.61293,-82.28513"
         id="path907"
         sodipodi:nodetypes="cc" />
      <path
         transform="matrix(0.29971444,0,0,0.29971444,198.52154,54.51207)"
         sodipodi:nodetypes="cc"
         id="path909"
         d="m -371.77822,232.33385 c 0.90698,-55.02364 25.49578,-81.91584 79.61293,-82.28513"
         style="fill:none;fill-opacity:1;stroke:#362417;stroke-width:5.21745;stroke-linecap:butt;stroke-linejoin:miter;stroke-miterlimit:4;stroke-dasharray:none;stroke-opacity:1" />
      <path
         style="fill:#7370a3;fill-opacity:1;stroke:#362417;stroke-width:0.474374;stroke-miterlimit:4;stroke-dasharray:none;stroke-opacity:1"
         d="m 668.72583,367.17654 c -1.40038,-5.40332 -4.41579,-10.14409 -8.3359,-13.10554 -1.86962,-1.41241 -5.44295,-3.20403 -7.85607,-3.93893 l -1.74484,-0.53138 2.16205,-0.70468 c 8.00442,-2.60891 13.1598,-7.97084 15.61042,-16.23588 l 0.66438,-2.2407 0.69561,2.2407 c 2.56458,8.26097 7.38525,13.39849 15.021,16.00826 l 2.74951,0.93974 -2.47124,0.80937 c -3.36058,1.10066 -6.25097,2.78624 -8.65991,5.05018 -3.03883,2.85594 -5.06209,6.1477 -6.39597,10.40603 -0.36345,1.16029 -0.7357,2.31477 -0.82722,2.56552 -0.11449,0.31366 -0.30537,-0.0803 -0.61182,-1.26269 z"
         id="path911"
         transform="matrix(0.83247704,0,0,0.83247704,-470.03827,-191.5518)" />
      <rect
         style="fill:#362417;fill-opacity:1;stroke-width:0.763966;stroke:#362417;stroke-opacity:1"
         id="rect913"
         width="1.5"
         height="1.5"
         x="86.394875"
         y="82.118568" />
      <rect
         y="98.822914"
         x="70.692787"
         height="1.5"
         width="1.5"
         id="rect915"
         style="fill:#362417;fill-opacity:1;stroke-width:0.763966;stroke:#362417;stroke-opacity:1" />
      <rect
         style="fill:#362417;fill-opacity:1;stroke-width:0.763966;stroke:#362417;stroke-opacity:1"
         id="rect917"
         width="1.5"
         height="1.5"
         x="86.361465"
         y="115.2934" />
      <rect
         y="98.756104"
         x="102.23059"
         height="1.5"
         width="1.5"
         id="rect919"
         style="fill:#362417;fill-opacity:1;stroke-width:0.763966;stroke:#362417;stroke-opacity:1" />
    </g>
    <g
       style="stroke:#362417;stroke-opacity:1"
       transform="matrix(0.40013297,0,0,0.40013297,70.523174,75.3634)"
       id="g941">
      <path
         sodipodi:nodetypes="cc"
         id="path923"
         d="m -371.77822,67.763599 c 0.90698,55.023631 25.49578,81.915831 79.61293,82.285121"
         style="fill:none;fill-opacity:1;stroke:#362417;stroke-width:5.21745;stroke-linecap:butt;stroke-linejoin:miter;stroke-miterlimit:4;stroke-dasharray:none;stroke-opacity:1"
         transform="matrix(0.29971444,0,0,0.29971444,198.52154,54.51207)" />
      <path
         style="fill:none;fill-opacity:1;stroke:#362417;stroke-width:5.21745;stroke-linecap:butt;stroke-linejoin:miter;stroke-miterlimit:4;stroke-dasharray:none;stroke-opacity:1"
         d="m -371.77822,67.763599 c -0.90698,55.023631 -25.49578,81.915831 -79.61293,82.285121"
         id="path925"
         sodipodi:nodetypes="cc"
         transform="matrix(0.29971444,0,0,0.29971444,198.52154,54.51207)" />
      <path
         sodipodi:nodetypes="cc"
         id="path927"
         d="m -371.77822,232.33385 c -0.90698,-55.02364 -25.49578,-81.91584 -79.61293,-82.28513"
         style="fill:none;fill-opacity:1;stroke:#362417;stroke-width:5.21745;stroke-linecap:butt;stroke-linejoin:miter;stroke-miterlimit:4;stroke-dasharray:none;stroke-opacity:1"
         transform="matrix(0.29971444,0,0,0.29971444,198.52154,54.51207)" />
      <path
         style="fill:none;fill-opacity:1;stroke:#362417;stroke-width:5.21745;stroke-linecap:butt;stroke-linejoin:miter;stroke-miterlimit:4;stroke-dasharray:none;stroke-opacity:1"
         d="m -371.77822,232.33385 c 0.90698,-55.02364 25.49578,-81.91584 79.61293,-82.28513"
         id="path929"
         sodipodi:nodetypes="cc"
         transform="matrix(0.29971444,0,0,0.29971444,198.52154,54.51207)" />
      <path
         transform="matrix(0.83247704,0,0,0.83247704,-470.03827,-191.5518)"
         id="path931"
         d="m 668.72583,367.17654 c -1.40038,-5.40332 -4.41579,-10.14409 -8.3359,-13.10554 -1.86962,-1.41241 -5.44295,-3.20403 -7.85607,-3.93893 l -1.74484,-0.53138 2.16205,-0.70468 c 8.00442,-2.60891 13.1598,-7.97084 15.61042,-16.23588 l 0.66438,-2.2407 0.69561,2.2407 c 2.56458,8.26097 7.38525,13.39849 15.021,16.00826 l 2.74951,0.93974 -2.47124,0.80937 c -3.36058,1.10066 -6.25097,2.78624 -8.65991,5.05018 -3.03883,2.85594 -5.06209,6.1477 -6.39597,10.40603 -0.36345,1.16029 -0.7357,2.31477 -0.82722,2.56552 -0.11449,0.31366 -0.30537,-0.0803 -0.61182,-1.26269 z"
         style="fill:#7370a3;fill-opacity:1;stroke:#362417;stroke-width:0.474374;stroke-miterlimit:4;stroke-dasharray:none;stroke-opacity:1" />
      <rect
         y="82.118568"
         x="86.394875"
         height="1.5"
         width="1.5"
         id="rect933"
         style="fill:#362417;fill-opacity:1;stroke-width:0.763966;stroke:#362417;stroke-opacity:1" />
      <rect
         style="fill:#362417;fill-opacity:1;stroke-width:0.763966;stroke:#362417;stroke-opacity:1"
         id="rect935"
         width="1.5"
         height="1.5"
         x="70.692787"
         y="98.822914" />
      <rect
         y="115.2934"
         x="86.361465"
         height="1.5"
         width="1.5"
         id="rect937"
         style="fill:#362417;fill-opacity:1;stroke-width:0.763966;stroke:#362417;stroke-opacity:1" />
      <rect
         style="fill:#362417;fill-opacity:1;stroke-width:0.763966;stroke:#362417;stroke-opacity:1"
         id="rect939"
         width="1.5"
         height="1.5"
         x="102.23059"
         y="98.756104" />
    </g>
  </g>
</svg>
