<?xml version="1.0" encoding="UTF-8" standalone="no"?>
<svg
   xmlns:dc="http://purl.org/dc/elements/1.1/"
   xmlns:cc="http://creativecommons.org/ns#"
   xmlns:rdf="http://www.w3.org/1999/02/22-rdf-syntax-ns#"
   xmlns:svg="http://www.w3.org/2000/svg"
   xmlns="http://www.w3.org/2000/svg"
   xmlns:sodipodi="http://sodipodi.sourceforge.net/DTD/sodipodi-0.dtd"
   xmlns:inkscape="http://www.inkscape.org/namespaces/inkscape"
   inkscape:version="1.0 (4035a4fb49, 2020-05-01)"
   sodipodi:docname="logo_min.svg"
   id="svg8"
   version="1.1"
   viewBox="126 83 70 70"
   height="297mm"
   width="297mm">
  <defs
     id="defs2">
    <rect
       id="rect1075"
       height="36.327095"
       width="51.47773"
       y="81.831845"
       x="145.52083" />
    <rect
       id="rect977"
       height="14.363095"
       width="63.877976"
       y="40.443452"
       x="53.294643" />
    <rect
       id="rect854"
       height="18.976136"
       width="87.129866"
       y="50.246671"
       x="116.52951" />
  </defs>
  <sodipodi:namedview
     showguides="false"
     inkscape:window-maximized="1"
     inkscape:window-y="-8"
     inkscape:window-x="-8"
     inkscape:window-height="1014"
     inkscape:window-width="1920"
     showgrid="false"
     inkscape:document-rotation="0"
     inkscape:current-layer="layer1"
     inkscape:document-units="mm"
     inkscape:cy="569.64539"
     inkscape:cx="545.63637"
     inkscape:zoom="0.7"
     inkscape:pageshadow="2"
     inkscape:pageopacity="0"
     borderopacity="1.0"
     bordercolor="#666666"
     pagecolor="#ffffff"
     id="base" />
  <metadata
     id="metadata5">
    <rdf:RDF>
      <cc:Work
         rdf:about="">
        <dc:format>image/svg+xml</dc:format>
        <dc:type
           rdf:resource="http://purl.org/dc/dcmitype/StillImage" />
        <dc:title />
      </cc:Work>
    </rdf:RDF>
  </metadata>
  <g
     id="layer1"
     inkscape:groupmode="layer"
     inkscape:label="Layer 1">
    <circle
       r="34.65591"
       cy="117.95499"
       cx="160.71811"
       id="path864"
       style="fill:#ffffff;fill-opacity:1;stroke:none;stroke-width:0.853567;stroke-opacity:1" />
    <circle
       transform="rotate(-97)"
       r="28.304184"
       cy="145.60399"
       cx="-136.44984"
       id="path1023"
       style="fill:none;fill-opacity:1;stroke:none;stroke-width:0.68597;stroke-miterlimit:4;stroke-dasharray:none;stroke-opacity:1" />
    <circle
       transform="rotate(-90)"
       r="28.265657"
       cy="161.35158"
       cx="-118.35042"
       id="path967"
       style="fill:none;fill-opacity:1;stroke:none;stroke-width:0.247624;stroke-opacity:1" />
    <path
       d="m 154.26185,90.141278 a 28.265658,28.265658 0 0 0 -21.04434,32.852582 28.265658,28.265658 0 0 0 33.13955,22.35333 28.265658,28.265658 0 0 0 16.97325,-10.46351 26.680728,26.680728 0 0 1 -9.75635,4.02242 26.680728,26.680728 0 0 1 -31.28128,-21.0995 26.680728,26.680728 0 0 1 11.96917,-27.665322 z"
       style="fill:#7370a3;fill-opacity:1;stroke:#362417;stroke-width:0.622376;stroke-miterlimit:4;stroke-dasharray:none;stroke-opacity:1"
       id="circle1012" />
    <text
       style="font-style:normal;font-weight:normal;font-size:10.5833px;line-height:1.25;font-family:sans-serif;white-space:pre;shape-inside:url(#rect1075);fill:#362417;fill-opacity:1;stroke:none;"
       id="text1073"
       xml:space="preserve"
       transform="matrix(0.9359038,0,0,0.9359038,8.2667828,7.2888591)" />
    <g
       transform="matrix(1.1908693,0,0,1.1908693,-14.019321,-26.598971)"
       id="g1736">
      <g
         id="g901"
         style="stroke:#362417;stroke-opacity:1"
         transform="matrix(0.40376174,0,0,0.40376174,118.77186,74.613641)">
        <path
           transform="matrix(0.29971444,0,0,0.29971444,198.52154,54.51207)"
           style="fill:none;fill-opacity:1;stroke:#362417;stroke-width:5.21745;stroke-linecap:butt;stroke-linejoin:miter;stroke-miterlimit:4;stroke-dasharray:none;stroke-opacity:1"
           d="m -371.77822,67.763599 c 0.90698,55.023631 25.49578,81.915831 79.61293,82.285121"
           id="path1059"
           sodipodi:nodetypes="cc" />
        <path
           transform="matrix(0.29971444,0,0,0.29971444,198.52154,54.51207)"
           sodipodi:nodetypes="cc"
           id="path1061"
           d="m -371.77822,67.763599 c -0.90698,55.023631 -25.49578,81.915831 -79.61293,82.285121"
           style="fill:none;fill-opacity:1;stroke:#362417;stroke-width:5.21745;stroke-linecap:butt;stroke-linejoin:miter;stroke-miterlimit:4;stroke-dasharray:none;stroke-opacity:1" />
        <path
           transform="matrix(0.29971444,0,0,0.29971444,198.52154,54.51207)"
           style="fill:none;fill-opacity:1;stroke:#362417;stroke-width:5.21745;stroke-linecap:butt;stroke-linejoin:miter;stroke-miterlimit:4;stroke-dasharray:none;stroke-opacity:1"
           d="m -371.77822,232.33385 c -0.90698,-55.02364 -25.49578,-81.91584 -79.61293,-82.28513"
           id="path1063"
           sodipodi:nodetypes="cc" />
        <path
           transform="matrix(0.29971444,0,0,0.29971444,198.52154,54.51207)"
           sodipodi:nodetypes="cc"
           id="path1065"
           d="m -371.77822,232.33385 c 0.90698,-55.02364 25.49578,-81.91584 79.61293,-82.28513"
           style="fill:none;fill-opacity:1;stroke:#362417;stroke-width:5.21745;stroke-linecap:butt;stroke-linejoin:miter;stroke-miterlimit:4;stroke-dasharray:none;stroke-opacity:1" />
        <path
           transform="matrix(0.83247704,0,0,0.83247704,-470.03827,-191.5518)"
           style="fill:#7370a3;fill-opacity:1;stroke:#362417;stroke-width:0.474374;stroke-miterlimit:4;stroke-dasharray:none;stroke-opacity:1"
           d="m 668.72583,367.17654 c -1.40038,-5.40332 -4.41579,-10.14409 -8.3359,-13.10554 -1.86962,-1.41241 -5.44295,-3.20403 -7.85607,-3.93893 l -1.74484,-0.53138 2.16205,-0.70468 c 8.00442,-2.60891 13.1598,-7.97084 15.61042,-16.23588 l 0.66438,-2.2407 0.69561,2.2407 c 2.56458,8.26097 7.38525,13.39849 15.021,16.00826 l 2.74951,0.93974 -2.47124,0.80937 c -3.36058,1.10066 -6.25097,2.78624 -8.65991,5.05018 -3.03883,2.85594 -5.06209,6.1477 -6.39597,10.40603 -0.36345,1.16029 -0.7357,2.31477 -0.82722,2.56552 -0.11449,0.31366 -0.30537,-0.0803 -0.61182,-1.26269 z"
           id="path970" />
        <rect
           style="fill:#362417;fill-opacity:1;stroke:#362417;stroke-width:0.763966;stroke-opacity:1"
           id="rect879"
           width="1.5"
           height="1.5"
           x="86.394875"
           y="82.118568" />
        <rect
           y="98.822914"
           x="70.692787"
           height="1.5"
           width="1.5"
           id="rect881"
           style="fill:#362417;fill-opacity:1;stroke:#362417;stroke-width:0.763966;stroke-opacity:1" />
        <rect
           style="fill:#362417;fill-opacity:1;stroke:#362417;stroke-width:0.763966;stroke-opacity:1"
           id="rect883"
           width="1.5"
           height="1.5"
           x="86.361465"
           y="115.2934" />
        <rect
           y="98.756104"
           x="102.23059"
           height="1.5"
           width="1.5"
           id="rect885"
           style="fill:#362417;fill-opacity:1;stroke:#362417;stroke-width:0.763966;stroke-opacity:1" />
      </g>
      <g
         transform="matrix(0.18475864,0,0,0.18475864,130.37794,104.28247)"
         id="g921"
         style="stroke:#362417;stroke-opacity:1">
        <path
           transform="matrix(0.29971444,0,0,0.29971444,198.52154,54.51207)"
           sodipodi:nodetypes="cc"
           id="path903"
           d="m -371.77822,67.763599 c 0.90698,55.023631 25.49578,81.915831 79.61293,82.285121"
           style="fill:none;fill-opacity:1;stroke:#362417;stroke-width:5.21745;stroke-linecap:butt;stroke-linejoin:miter;stroke-miterlimit:4;stroke-dasharray:none;stroke-opacity:1" />
        <path
           transform="matrix(0.29971444,0,0,0.29971444,198.52154,54.51207)"
           style="fill:none;fill-opacity:1;stroke:#362417;stroke-width:5.21745;stroke-linecap:butt;stroke-linejoin:miter;stroke-miterlimit:4;stroke-dasharray:none;stroke-opacity:1"
           d="m -371.77822,67.763599 c -0.90698,55.023631 -25.49578,81.915831 -79.61293,82.285121"
           id="path905"
           sodipodi:nodetypes="cc" />
        <path
           transform="matrix(0.29971444,0,0,0.29971444,198.52154,54.51207)"
           sodipodi:nodetypes="cc"
           id="path907"
           d="m -371.77822,232.33385 c -0.90698,-55.02364 -25.49578,-81.91584 -79.61293,-82.28513"
           style="fill:none;fill-opacity:1;stroke:#362417;stroke-width:5.21745;stroke-linecap:butt;stroke-linejoin:miter;stroke-miterlimit:4;stroke-dasharray:none;stroke-opacity:1" />
        <path
           transform="matrix(0.29971444,0,0,0.29971444,198.52154,54.51207)"
           style="fill:none;fill-opacity:1;stroke:#362417;stroke-width:5.21745;stroke-linecap:butt;stroke-linejoin:miter;stroke-miterlimit:4;stroke-dasharray:none;stroke-opacity:1"
           d="m -371.77822,232.33385 c 0.90698,-55.02364 25.49578,-81.91584 79.61293,-82.28513"
           id="path909"
           sodipodi:nodetypes="cc" />
        <path
           transform="matrix(0.83247704,0,0,0.83247704,-470.03827,-191.5518)"
           id="path911"
           d="m 668.72583,367.17654 c -1.40038,-5.40332 -4.41579,-10.14409 -8.3359,-13.10554 -1.86962,-1.41241 -5.44295,-3.20403 -7.85607,-3.93893 l -1.74484,-0.53138 2.16205,-0.70468 c 8.00442,-2.60891 13.1598,-7.97084 15.61042,-16.23588 l 0.66438,-2.2407 0.69561,2.2407 c 2.56458,8.26097 7.38525,13.39849 15.021,16.00826 l 2.74951,0.93974 -2.47124,0.80937 c -3.36058,1.10066 -6.25097,2.78624 -8.65991,5.05018 -3.03883,2.85594 -5.06209,6.1477 -6.39597,10.40603 -0.36345,1.16029 -0.7357,2.31477 -0.82722,2.56552 -0.11449,0.31366 -0.30537,-0.0803 -0.61182,-1.26269 z"
           style="fill:#7370a3;fill-opacity:1;stroke:#362417;stroke-width:0.474374;stroke-miterlimit:4;stroke-dasharray:none;stroke-opacity:1" />
        <rect
           y="82.118568"
           x="86.394875"
           height="1.5"
           width="1.5"
           id="rect913"
           style="fill:#362417;fill-opacity:1;stroke:#362417;stroke-width:0.763966;stroke-opacity:1" />
        <rect
           style="fill:#362417;fill-opacity:1;stroke:#362417;stroke-width:0.763966;stroke-opacity:1"
           id="rect915"
           width="1.5"
           height="1.5"
           x="70.692787"
           y="98.822914" />
        <rect
           y="115.2934"
           x="86.361465"
           height="1.5"
           width="1.5"
           id="rect917"
           style="fill:#362417;fill-opacity:1;stroke:#362417;stroke-width:0.763966;stroke-opacity:1" />
        <rect
           style="fill:#362417;fill-opacity:1;stroke:#362417;stroke-width:0.763966;stroke-opacity:1"
           id="rect919"
           width="1.5"
           height="1.5"
           x="102.23059"
           y="98.756104" />
      </g>
      <g
         id="g941"
         transform="matrix(0.16155839,0,0,0.16155839,147.24643,105.04251)"
         style="stroke:#362417;stroke-opacity:1">
        <path
           transform="matrix(0.29971444,0,0,0.29971444,198.52154,54.51207)"
           style="fill:none;fill-opacity:1;stroke:#362417;stroke-width:5.21745;stroke-linecap:butt;stroke-linejoin:miter;stroke-miterlimit:4;stroke-dasharray:none;stroke-opacity:1"
           d="m -371.77822,67.763599 c 0.90698,55.023631 25.49578,81.915831 79.61293,82.285121"
           id="path923"
           sodipodi:nodetypes="cc" />
        <path
           transform="matrix(0.29971444,0,0,0.29971444,198.52154,54.51207)"
           sodipodi:nodetypes="cc"
           id="path925"
           d="m -371.77822,67.763599 c -0.90698,55.023631 -25.49578,81.915831 -79.61293,82.285121"
           style="fill:none;fill-opacity:1;stroke:#362417;stroke-width:5.21745;stroke-linecap:butt;stroke-linejoin:miter;stroke-miterlimit:4;stroke-dasharray:none;stroke-opacity:1" />
        <path
           transform="matrix(0.29971444,0,0,0.29971444,198.52154,54.51207)"
           style="fill:none;fill-opacity:1;stroke:#362417;stroke-width:5.21745;stroke-linecap:butt;stroke-linejoin:miter;stroke-miterlimit:4;stroke-dasharray:none;stroke-opacity:1"
           d="m -371.77822,232.33385 c -0.90698,-55.02364 -25.49578,-81.91584 -79.61293,-82.28513"
           id="path927"
           sodipodi:nodetypes="cc" />
        <path
           transform="matrix(0.29971444,0,0,0.29971444,198.52154,54.51207)"
           sodipodi:nodetypes="cc"
           id="path929"
           d="m -371.77822,232.33385 c 0.90698,-55.02364 25.49578,-81.91584 79.61293,-82.28513"
           style="fill:none;fill-opacity:1;stroke:#362417;stroke-width:5.21745;stroke-linecap:butt;stroke-linejoin:miter;stroke-miterlimit:4;stroke-dasharray:none;stroke-opacity:1" />
        <path
           transform="matrix(0.83247704,0,0,0.83247704,-470.03827,-191.5518)"
           style="fill:#7370a3;fill-opacity:1;stroke:#362417;stroke-width:0.474374;stroke-miterlimit:4;stroke-dasharray:none;stroke-opacity:1"
           d="m 668.72583,367.17654 c -1.40038,-5.40332 -4.41579,-10.14409 -8.3359,-13.10554 -1.86962,-1.41241 -5.44295,-3.20403 -7.85607,-3.93893 l -1.74484,-0.53138 2.16205,-0.70468 c 8.00442,-2.60891 13.1598,-7.97084 15.61042,-16.23588 l 0.66438,-2.2407 0.69561,2.2407 c 2.56458,8.26097 7.38525,13.39849 15.021,16.00826 l 2.74951,0.93974 -2.47124,0.80937 c -3.36058,1.10066 -6.25097,2.78624 -8.65991,5.05018 -3.03883,2.85594 -5.06209,6.1477 -6.39597,10.40603 -0.36345,1.16029 -0.7357,2.31477 -0.82722,2.56552 -0.11449,0.31366 -0.30537,-0.0803 -0.61182,-1.26269 z"
           id="path931" />
        <rect
           style="fill:#362417;fill-opacity:1;stroke:#362417;stroke-width:0.763966;stroke-opacity:1"
           id="rect933"
           width="1.5"
           height="1.5"
           x="86.394875"
           y="82.118568" />
        <rect
           y="98.822914"
           x="70.692787"
           height="1.5"
           width="1.5"
           id="rect935"
           style="fill:#362417;fill-opacity:1;stroke:#362417;stroke-width:0.763966;stroke-opacity:1" />
        <rect
           style="fill:#362417;fill-opacity:1;stroke:#362417;stroke-width:0.763966;stroke-opacity:1"
           id="rect937"
           width="1.5"
           height="1.5"
           x="86.361465"
           y="115.2934" />
        <rect
           y="98.756104"
           x="102.23059"
           height="1.5"
           width="1.5"
           id="rect939"
           style="fill:#362417;fill-opacity:1;stroke:#362417;stroke-width:0.763966;stroke-opacity:1" />
      </g>
    </g>
  </g>
</svg>
